HIERARCHY
ROOT Hips
{
	OFFSET -0.179506 -22.333345 2.821913
	CHANNELS 6 Xposition Yposition Zposition Zrotation Yrotation Xrotation 
	JOINT LeftUpLeg
	{
		OFFSET 6.951974 -9.140623 -0.681533
		CHANNELS 3 Zrotation Yrotation Xrotation
		JOINT LeftLeg
		{
			OFFSET 3.427654 -37.519855 -0.449580
			CHANNELS 3 Zrotation Yrotation Xrotation
			JOINT LeftFoot
			{
				OFFSET -1.359570 -39.796059 -4.369333
				CHANNELS 3 Zrotation Yrotation Xrotation
				JOINT LeftToe
				{
					OFFSET 2.635814 -5.579078 11.928840
					CHANNELS 3 Zrotation Yrotation Xrotation
					End Site
					{
						OFFSET 0.000000 0.000000 0.000000
					}
				}
			}
		}
	}
	JOINT RightUpLeg
	{
		OFFSET -6.767048 -9.052170 -0.431982
		CHANNELS 3 Zrotation Yrotation Xrotation
		JOINT RightLeg
		{
			OFFSET -3.829005 -38.256897 -0.885003
			CHANNELS 3 Zrotation Yrotation Xrotation
			JOINT RightFoot
			{
				OFFSET 1.577377 -39.841461 -4.231180
				CHANNELS 3 Zrotation Yrotation Xrotation
				JOINT RightToe
				{
					OFFSET -2.537174 -4.814398 12.334795
					CHANNELS 3 Zrotation Yrotation Xrotation
					End Site
					{
						OFFSET 0.000000 0.000000 0.000000
					}
				}
			}
		}
	}
	JOINT Spine
	{
		OFFSET -0.253288 10.896323 -2.669631
		CHANNELS 3 Zrotation Yrotation Xrotation
		JOINT Spine1
		{
			OFFSET 0.548704 13.518043 0.109247
			CHANNELS 3 Zrotation Yrotation Xrotation
			JOINT Spine2
			{
				OFFSET 0.145701 5.292222 2.542457
				CHANNELS 3 Zrotation Yrotation Xrotation
				JOINT Neck
				{
					OFFSET -0.277840 21.387037 -4.285703
					CHANNELS 3 Zrotation Yrotation Xrotation
					JOINT Head
					{
						OFFSET 0.515184 6.496960 5.134897
						CHANNELS 3 Zrotation Yrotation Xrotation
						End Site
						{
							OFFSET 0.000000 0.000000 0.000000
						}
					}
				}
				JOINT LeftShoulder
				{
					OFFSET 7.884473 12.174932 -3.408961
					CHANNELS 3 Zrotation Yrotation Xrotation
					JOINT LeftArm
					{
						OFFSET 9.097692 3.046888 -0.886815
						CHANNELS 3 Zrotation Yrotation Xrotation
						JOINT LeftForeArm
						{
							OFFSET 25.961220 -1.277207 -2.745643
							CHANNELS 3 Zrotation Yrotation Xrotation
							JOINT LeftHand
							{
								OFFSET 24.923361 0.898606 -0.117091
								CHANNELS 3 Zrotation Yrotation Xrotation
								End Site
								{
									OFFSET 0.000000 0.000000 0.000000
								}
							}
						}
					}
				}
				JOINT RightShoulder
				{
					OFFSET -8.175920 11.883285 -3.861528
					CHANNELS 3 Zrotation Yrotation Xrotation
					JOINT RightArm
					{
						OFFSET -9.601238 3.255117 -0.914307
						CHANNELS 3 Zrotation Yrotation Xrotation
						JOINT RightForeArm
						{
							OFFSET -25.374195 -1.332924 -2.140099
							CHANNELS 3 Zrotation Yrotation Xrotation
							JOINT RightHand
							{
								OFFSET -25.529810 0.777228 -0.555919
								CHANNELS 3 Zrotation Yrotation Xrotation
								End Site
								{
									OFFSET 0.000000 0.000000 0.000000
								}
							}
						}
					}
				}
			}
		}
	}
}
MOTION
Frames: 7
Frame Time: 0.033333
320.076538 -298.427155 84.995819 52.806693 0.092635 74.473424 6.822075 4.581209 -21.625159 -10.851778 6.145519 88.382289 7.400820 9.437551 -45.594053 nan nan nan -1.106435 1.759267 -16.786342 5.665848 5.868753 58.165598 4.748117 1.381358 -19.449250 nan nan nan -1.001093 -1.022963 20.911387 0.272509 -2.858440 -6.196961 -1.252254 -2.493804 0.417348 1.935029 -2.720677 -13.143214 6.886573 1.088428 -2.682410 -21.810699 -1.562527 -0.561670 -47.861883 -2.544601 10.426727 -155.941462 -72.394880 -167.286050 -16.227521 -13.035553 -6.353299 13.700441 -6.000816 -2.448725 41.924806 -17.455592 7.088251 150.292583 78.632893 177.919643 33.556499 15.366069 -25.335518 
318.988892 -297.410828 84.740623 52.980051 0.286580 74.779851 7.403662 4.305019 -20.354532 -11.257916 5.705053 89.724467 7.307721 9.172696 -45.224626 nan nan nan -1.277418 1.720857 -18.489767 5.844328 5.582065 58.403865 4.775844 1.676576 -18.297788 nan nan nan -1.045506 -1.613764 20.215616 0.560953 -3.264230 -5.791842 -1.231653 -3.138722 0.673311 1.855664 -2.008322 -13.574651 6.902849 1.652079 -2.773956 -21.524615 -1.340653 -1.128331 -48.550801 -5.092396 9.895344 -158.320811 -71.645300 -164.841744 -17.020692 -13.326242 -7.267476 13.696308 -7.266944 -2.198085 41.837387 -17.712867 7.275825 145.758654 78.283673 174.035875 34.943980 16.303864 -25.905856 
317.908051 -296.548401 84.604507 53.008488 0.450868 74.955143 8.108166 3.961916 -18.403156 -11.558680 5.206585 90.216149 6.864067 8.811318 -44.239670 nan nan nan -1.383263 2.032448 -19.791970 5.788845 5.032289 58.299018 5.068353 1.674381 -17.411178 nan nan nan -1.338463 -2.287968 19.518754 0.865884 -3.472489 -5.492028 -1.140568 -3.672393 0.948088 1.635947 -1.414643 -13.488290 6.943250 2.091495 -3.148259 -20.767721 -1.178900 -1.326240 -49.312025 -7.622047 9.530575 -161.414199 -71.177112 -161.903886 -17.149994 -13.640474 -7.663049 13.341729 -8.434309 -1.899203 42.028299 -18.178744 7.872797 143.620312 77.794577 172.322451 35.483190 16.861041 -26.435543 
316.885223 -295.689178 84.608170 52.957678 0.542049 74.771452 8.486266 3.685680 -15.584457 -11.846660 4.423840 89.830639 6.384957 8.546395 -42.892917 nan nan nan -1.292299 2.357912 -20.268917 5.583647 4.959231 57.625616 5.197572 1.565782 -16.484160 nan nan nan -1.493596 -2.905710 19.068402 0.943427 -3.717578 -4.986009 -1.043960 -4.187233 1.080398 1.156027 -1.159345 -13.211708 7.191973 2.839994 -3.570427 -20.153715 -1.552882 -1.312034 -49.502992 -9.540636 9.067060 -165.529969 -70.677600 -158.688767 -16.520425 -13.884264 -8.057041 12.957718 -8.776625 -1.304433 42.656510 -19.603998 8.547925 145.357830 77.430397 173.527696 34.955324 17.112090 -26.939677 
315.965912 -294.826904 84.680122 52.853321 0.607068 74.532395 8.627784 3.305914 -12.358409 -12.457861 3.511181 88.735516 5.735936 8.277372 -41.464319 nan nan nan -1.329026 2.591012 -20.742132 5.443520 4.864970 56.965719 5.572657 1.568177 -15.215839 nan nan nan -1.574391 -3.496478 18.911105 0.997700 -3.979508 -4.937881 -0.878667 -4.789186 1.118792 0.762806 -0.961364 -12.872499 7.203256 3.759312 -3.483392 -19.463499 -1.974813 -1.282360 -49.498425 -11.049939 8.772335 -169.817251 -70.054212 -155.231687 -16.481735 -14.340940 -8.333319 11.922308 -9.440453 -1.687424 42.428360 -21.203075 9.432765 142.562332 75.991449 170.888874 36.321275 17.816200 -27.375490 
315.158691 -293.946747 84.851395 52.710328 0.686948 74.193760 8.692745 2.800943 -9.059366 -12.752580 2.426685 87.394201 5.112053 8.868881 -40.449086 nan nan nan -1.391942 2.776191 -20.929083 5.500928 4.955495 56.064972 5.967029 1.183222 -14.014523 nan nan nan -1.656043 -4.131410 18.560662 1.081445 -4.345622 -4.698856 -0.751801 -5.299964 1.352782 0.546741 -0.662943 -12.674316 7.199135 4.939076 -3.532407 -18.650683 -2.521919 -1.060167 -49.085927 -12.336783 8.782102 -173.948275 -69.329252 -152.251076 -15.176978 -14.608439 -9.395979 11.082724 -10.214002 -2.229542 41.685194 -22.464814 10.589578 140.708833 74.473560 168.792526 37.260934 18.505404 -27.830356 
314.326294 -293.055145 85.091606 52.735496 0.900465 73.911978 8.574615 2.184705 -5.840461 -13.177485 0.989170 85.593483 4.550635 9.376891 -38.713095 nan nan nan -1.275004 3.018257 -20.982035 5.555760 5.022609 54.834454 5.976423 0.500148 -12.509735 nan nan nan -1.775692 -4.812100 17.780207 1.256813 -4.930106 -4.087805 -0.569622 -5.940173 1.565405 0.268925 -0.309695 -11.962591 7.257764 6.471115 -3.711389 -17.761147 -3.578898 -0.461059 -48.261330 -13.170336 8.693628 -178.687221 -68.481780 -148.655715 -13.080916 -14.497540 -10.342930 9.973507 -10.276060 -2.319127 41.346359 -23.486526 11.601961 140.517938 73.183651 168.338421 37.905956 18.956328 -28.537075 
